<svg width="37" height="37" viewBox="0 0 37 37" fill="none" xmlns="http://www.w3.org/2000/svg">
<g clip-path="url(#clip0)">
<path fill-rule="evenodd" clip-rule="evenodd" d="M29.7072 13.2254C29.6765 15.2661 30.1978 16.477 31.3639 17.8809C32.248 18.9155 32.5158 20.2306 32.4944 21.6527C32.4731 23.0732 31.9861 24.4146 31.0347 25.4953C29.7909 26.7894 28.0521 27.6013 26.2881 27.7205C23.7318 27.8998 21.1743 28.0447 18.5857 28.0058C15.9955 27.9669 13.4441 27.819 10.8954 27.4893C9.13421 27.3172 7.42053 26.4534 6.2178 25.1226C5.29925 24.0138 4.8512 22.6583 4.87253 21.2379C4.89389 19.8158 5.20264 18.5093 6.11583 17.5017C7.3607 16.134 7.88259 14.9387 7.91324 12.8981L7.92364 12.2059C7.96468 9.47299 8.67299 7.69622 10.1026 5.96793C12.2273 3.44803 15.5946 1.96818 18.9034 2.01788L19.0487 2.02006C22.4286 2.07082 25.857 3.7264 27.8679 6.41808C29.1728 8.15143 29.7575 9.87233 29.7176 12.5332L29.7072 13.2254ZM13.7798 31.2931C13.792 30.4749 14.5486 30.1114 15.2454 29.9615C16.0602 29.8019 21.0097 29.8762 21.8194 30.0602C22.5114 30.231 23.2566 30.6171 23.2443 31.4353C23.1923 32.2136 22.7249 32.8973 22.0869 33.3264C21.2586 33.9524 20.2917 34.3421 19.2851 34.4727C18.7285 34.5363 18.1827 34.5298 17.6476 34.4481C16.6438 34.2873 15.689 33.8687 14.8815 33.2166C14.2551 32.7701 13.8084 32.0727 13.7798 31.2931Z" fill="white"/>
</g>
<defs>
<clipPath id="clip0">
<rect width="36" height="36" fill="white" transform="translate(1) rotate(0.887143)"/>
</clipPath>
</defs>
</svg>
