<svg width="37" height="37" viewBox="0 0 37 37" fill="none" xmlns="http://www.w3.org/2000/svg">
<path d="M31.2749 16.5051V28.5051C31.2749 29.7051 30.2249 30.7551 29.0249 30.7551H24.5249C23.3249 30.7551 22.2749 29.7051 22.2749 28.5051V24.1551C22.2749 22.3551 20.7749 20.8551 18.9749 20.8551C17.1749 20.8551 15.6749 22.3551 15.6749 24.1551V28.5051C15.6749 29.7051 14.6249 30.7551 13.4249 30.7551H8.92493C7.72493 30.7551 6.67493 29.7051 6.67493 28.5051V16.5051C6.67493 15.7551 6.97489 15.1551 7.57489 14.7051L17.7749 6.90508C18.5249 6.30508 19.7249 6.30508 20.4749 6.90508L30.6749 14.7051C30.9749 15.1551 31.2749 15.7551 31.2749 16.5051Z" fill="#3C30C8"/>
</svg>
