<svg width="37" height="37" viewBox="0 0 37 37" fill="none" xmlns="http://www.w3.org/2000/svg">
<path d="M31.6839 28.6532L27.4839 24.4532C28.9839 22.3532 29.7339 19.9532 29.7339 17.2532C29.7339 10.3532 24.184 4.80322 17.284 4.80322C10.384 4.80322 4.83398 10.3532 4.83398 17.2532C4.83398 24.1532 10.384 29.7032 17.284 29.7032C19.834 29.7032 22.3839 28.9532 24.4839 27.4532L28.6839 31.6532C29.1339 32.1032 29.5839 32.2532 30.1839 32.2532C30.7839 32.2532 31.2339 32.1032 31.6839 31.6532C32.5839 30.7532 32.5839 29.4032 31.6839 28.6532ZM9.18393 17.2532C9.18393 12.7532 12.9339 9.0032 17.4339 9.0032C21.9339 9.0032 25.6839 12.7532 25.6839 17.2532C25.6839 19.5032 24.784 21.4532 23.284 23.1032C21.784 24.6032 19.6839 25.5032 17.4339 25.5032C12.7839 25.3532 9.18393 21.7532 9.18393 17.2532Z" fill="#3C30C8" fill-opacity="0.35"/>
</svg>
